<?xml version="1.0" standalone="no"?><!DOCTYPE svg PUBLIC "-//W3C//DTD SVG 1.1//EN" "http://www.w3.org/Graphics/SVG/1.1/DTD/svg11.dtd"><svg class="icon" width="200px" height="200.00px" viewBox="0 0 1024 1024" version="1.1" xmlns="http://www.w3.org/2000/svg"><path fill="#333333" d="M512.896 640c-152.426667 0-276.437333-143.552-276.437333-320S360.448 0 512.896 0C665.322667 0 789.333333 143.552 789.333333 320S665.322667 640 512.896 640zM512.896 42.666667c-128.896 0-233.770667 124.416-233.770667 277.333333s104.874667 277.333333 233.770667 277.333333S746.666667 472.917333 746.666667 320 641.792 42.666667 512.896 42.666667zM1023.616 1024 0.405333 1024l0-144.448c0-62.954667 39.829333-119.488 99.093333-140.629333L362.666667 666.410667l0-88.64 42.666667 0 0 121.152-293.013333 80.64c-40.810667 14.656-69.269333 55.018667-69.269333 99.989333L43.050667 981.333333l937.898667 0 0-101.781333c0-44.949333-28.437333-85.333333-70.805333-100.458667L618.666667 698.922667l0-120.256 42.666667 0 0 87.744 261.653333 72.021333c60.8 21.653333 100.629333 78.144 100.629333 141.098667L1023.616 1024zM699.712 281.984c-1.450667 0-2.901333-0.021333-4.373333-0.085333-48.021333-1.749333-104-32.128-139.562667-73.194667-24.874667 31.701333-60.394667 52.096-104.362667 59.562667-76.906667 13.205333-164.864-16.32-191.616-42.282667l29.717333-30.634667c12.885333 12.522667 86.08 42.538667 154.752 30.848 42.624-7.232 73.344-29.141333 91.306667-65.088l17.834667-35.648 19.776 34.602667c23.616 41.344 80.277333 77.589333 123.733333 79.189333 19.328 0.512 33.066667-5.269333 41.834667-18.282667l35.392 23.829333C757.930667 268.885333 731.626667 281.984 699.712 281.984z" /></svg>