<?xml version="1.0" standalone="no"?><!DOCTYPE svg PUBLIC "-//W3C//DTD SVG 1.1//EN" "http://www.w3.org/Graphics/SVG/1.1/DTD/svg11.dtd"><svg class="icon" width="200px" height="200.00px" viewBox="0 0 1024 1024" version="1.1" xmlns="http://www.w3.org/2000/svg"><path fill="#1296db" d="M503.808 58.88c118.272 0 214.528 96.256 214.528 214.528s-96.256 214.528-214.528 214.528-215.04-95.744-215.04-214.528 96.768-214.528 215.04-214.528m0-52.224c-147.456 0-266.752 119.296-266.752 266.752s119.296 266.752 266.752 266.752 266.752-119.296 266.752-266.752c0-146.944-119.296-266.752-266.752-266.752zM613.888 633.344c81.92 0 159.232 32.256 217.6 90.624 58.368 58.368 90.624 135.68 90.624 217.6v22.016H101.888v-22.016c0-81.92 32.256-159.232 90.624-217.6C250.88 665.6 328.192 633.344 410.112 633.344h203.776m0-49.664H410.112c-197.12 0-358.4 161.28-358.4 358.4v60.416c0 4.096 0.512 7.68 0.512 11.776h919.04c0-4.096 0.512-7.68 0.512-11.776V942.08c0.512-197.12-160.768-358.4-357.888-358.4zM422.912 273.408h-5.12c-11.776 0-21.504-9.728-21.504-21.504v-39.424c0-11.776 9.728-21.504 21.504-21.504h5.12c11.776 0 21.504 9.728 21.504 21.504v39.424c0.512 11.776-9.216 21.504-21.504 21.504zM589.312 273.408h-5.12c-11.776 0-21.504-9.728-21.504-21.504v-39.424c0-11.776 9.728-21.504 21.504-21.504h5.12c11.776 0 21.504 9.728 21.504 21.504v39.424c0.512 11.776-9.216 21.504-21.504 21.504z" /></svg>