<?xml version="1.0" standalone="no"?><!DOCTYPE svg PUBLIC "-//W3C//DTD SVG 1.1//EN" "http://www.w3.org/Graphics/SVG/1.1/DTD/svg11.dtd"><svg class="icon" width="200px" height="200.00px" viewBox="0 0 1024 1024" version="1.1" xmlns="http://www.w3.org/2000/svg"><path fill="#1296db" d="M463.473 1015.501c-6.64 0-13.337-2.059-19.074-6.327-4.35-3.237-107.75-80.509-212.818-188.342C86.873 672.315 13.5 543.008 13.5 436.5c0-63.435 10.25-121.641 30.466-173.001 20.989-53.326 52.72-99.346 94.314-136.783 42.484-38.239 95.376-67.573 157.209-87.187C358.305 19.603 431.15 9.5 512 9.5c192.709 0 310.132 78.791 374.702 144.888 39.817 40.758 70.872 87.816 92.302 139.867 19.951 48.457 30.496 99.719 30.496 148.245 0 47.345-10.191 97.808-29.473 145.933-19.619 48.968-48.729 95.574-84.182 134.78-38.594 42.679-83.814 76.357-134.407 100.1C706.027 849.315 645.824 862.5 582.5 862.5l-65 0c-17.673 0-32-14.327-32-32s14.327-32 32-32l65 0c236.852 0 363-206.75 363-356 0-85.371-39.095-176.357-104.577-243.388C784.942 141.808 682.436 73.5 512 73.5c-280.191 0-434.5 128.916-434.5 363 0 87.845 68.933 205.097 199.345 339.078C378.392 879.905 481.576 957.063 482.606 957.83c14.174 10.553 17.113 30.599 6.562 44.774C482.887 1011.044 473.242 1015.501 463.473 1015.501zM463.5 1010.5c-17.673 0-32-14.327-32-32l0-180 86 0c17.673 0 32 14.327 32 32s-14.327 32-32 32l-22 0 0 116C495.5 996.173 481.173 1010.5 463.5 1010.5zM281.979 531.505c-48.813 0-88.526-39.713-88.526-88.526s39.713-88.526 88.526-88.526 88.526 39.713 88.526 88.526S330.792 531.505 281.979 531.505zM281.979 398.452c-24.552 0-44.526 19.975-44.526 44.526s19.975 44.526 44.526 44.526 44.526-19.975 44.526-44.526S306.53 398.452 281.979 398.452zM503.402 531.505c-48.813 0-88.526-39.713-88.526-88.526s39.713-88.526 88.526-88.526 88.526 39.713 88.526 88.526S552.216 531.505 503.402 531.505zM503.402 398.452c-24.552 0-44.526 19.975-44.526 44.526s19.975 44.526 44.526 44.526 44.526-19.975 44.526-44.526S527.954 398.452 503.402 398.452zM726.941 531.505c-48.813 0-88.526-39.713-88.526-88.526s39.713-88.526 88.526-88.526 88.526 39.713 88.526 88.526S775.755 531.505 726.941 531.505zM726.941 398.452c-24.552 0-44.526 19.975-44.526 44.526s19.975 44.526 44.526 44.526 44.526-19.975 44.526-44.526S751.493 398.452 726.941 398.452z" /></svg>